<svg width="39" height="56" fill="none" xmlns="http://www.w3.org/2000/svg"><g id="Logo" stroke="#7EB693" stroke-width="2" stroke-miterlimit="10"><path id="Vector" d="M1.85 42.068h34.881"/><path id="Vector_2" d="M5.791 48.5h27"/><path id="Vector_3" d="M18.791 1.5v14"/><path id="Vector_4" d="M18.866 14.784v26.432"/><path id="Vector_5" d="M29.925 4.553l-11.06 11.084"/><path id="Vector_6" d="M34.18 8.816L18.865 24.163"/><path id="Vector_7" d="M36.731 15.637L18.866 32.689"/><path id="Vector_8" d="M37.582 23.31L18.866 42.07"/><path id="Vector_9" d="M37.582 31.837L27.373 42.069"/><path id="Vector_10" d="M1 31.837l10.209 10.232"/><path id="Vector_11" d="M8.657 4.553l10.209 11.084"/><path id="Vector_12" d="M4.403 8.816l14.463 15.347"/><path id="Vector_13" d="M1.85 14.784L18.866 32.69"/><path id="Vector_14" d="M1 22.458l17.866 18.758"/><path id="Vector_15" d="M19.291 54.858C9.191 54.858 1 46.406 1 35.978V20.022C1 9.596 9.19 1.143 19.291 1.143c10.103 0 18.291 8.453 18.291 18.88v15.954c.002 10.429-8.188 18.88-18.291 18.88z"/></g></svg>